<svg width="72" height="26" viewBox="0 0 72 26" fill="none" xmlns="http://www.w3.org/2000/svg">
<path d="M4.88944 0L3.66616 3.40112H20.6168L21.8401 0H4.88944ZM3.05489 5.10056L1.83161 8.50094H18.7823L20.0056 5.10056H3.05489ZM1.22328 10.2011L0 13.6015H16.9507L18.1732 10.2011H1.22328Z" fill="#1856A8"/>
<path d="M36.0351 14.898V14.97C36.8098 15.2582 37.5501 15.7633 37.9378 16.0871C39.1354 17.0965 39.6646 18.4298 39.6646 20.1597C39.6646 23.0082 38.1848 25.0619 35.7536 25.7111C35.0134 25.9273 34.2386 25.9993 32.794 25.9993H25.4316V5.16626H31.9497C33.2887 5.16626 34.2042 5.23831 35.0141 5.45371C37.3749 6.10289 38.925 7.76074 38.925 10.3916C38.925 11.7977 38.4318 12.9876 37.6219 13.7801C37.2693 14.1403 36.7761 14.5734 36.0365 14.8972L36.0351 14.898ZM29.5178 17.0965V22.5752H32.3367C33.1817 22.5752 33.9572 22.5031 34.5208 21.9624C35.0844 21.4217 35.3307 20.7368 35.3307 19.8359C35.3307 19.1518 35.1541 18.5026 34.8023 18.0339C34.2035 17.277 33.4632 17.0965 32.1952 17.0965H29.517H29.5178ZM29.4819 13.4919H31.7723C32.4767 13.4919 32.8292 13.4919 33.181 13.3842C34.1331 13.0953 34.7319 12.2314 34.7319 11.0415C34.7319 9.63622 34.0979 9.02269 33.181 8.73524C32.7933 8.6268 32.4063 8.59115 31.6308 8.59115H29.4819V13.4926V13.4919ZM45.7942 26.0001V8.66245H39.9109V5.167H56.2591L55.0966 8.66245H49.8818V26.0001H45.7949H45.7942ZM57.527 26.0001V5.167H70.7749L69.6125 8.66245H61.5795V13.2765H64.8564C67.4987 13.2765 68.8729 13.9257 69.8243 14.7539C70.5646 15.403 71.8326 16.844 71.8326 19.6925C71.8326 22.5039 70.5294 24.0533 69.4366 24.8465C68.1686 25.7468 66.8295 26.0001 64.1162 26.0001H57.5278H57.527ZM61.5787 22.5031H64.6439C65.8063 22.5031 66.5107 22.2149 67.0039 21.5658C67.2502 21.2419 67.6028 20.664 67.6028 19.5833C67.6028 18.5026 67.2502 17.745 66.5459 17.2042C66.1237 16.8804 65.5593 16.7006 64.608 16.7006H61.578V22.5031H61.5787Z" fill="#1856A8"/>
</svg>
